<svg id="visual" viewBox="0 0 900 600" width="900" height="600" xmlns="http://www.w3.org/2000/svg" xmlns:xlink="http://www.w3.org/1999/xlink" version="1.1"><rect x="0" y="0" width="900" height="600" fill="#caf0f8"></rect><path d="M339 600L334.5 587.5C330 575 321 550 326.8 525C332.7 500 353.3 475 357.7 450C362 425 350 400 330.8 375C311.7 350 285.3 325 294.5 300C303.7 275 348.3 250 353.8 225C359.3 200 325.7 175 315.7 150C305.7 125 319.3 100 333.3 75C347.3 50 361.7 25 368.8 12.5L376 0L900 0L900 12.5C900 25 900 50 900 75C900 100 900 125 900 150C900 175 900 200 900 225C900 250 900 275 900 300C900 325 900 350 900 375C900 400 900 425 900 450C900 475 900 500 900 525C900 550 900 575 900 587.5L900 600Z" fill="#48cae4"></path><path d="M358 600L356.7 587.5C355.3 575 352.7 550 367.5 525C382.3 500 414.7 475 424.3 450C434 425 421 400 412.2 375C403.3 350 398.7 325 409 300C419.3 275 444.7 250 441.5 225C438.3 200 406.7 175 405.7 150C404.7 125 434.3 100 431.3 75C428.3 50 392.7 25 374.8 12.5L357 0L900 0L900 12.5C900 25 900 50 900 75C900 100 900 125 900 150C900 175 900 200 900 225C900 250 900 275 900 300C900 325 900 350 900 375C900 400 900 425 900 450C900 475 900 500 900 525C900 550 900 575 900 587.5L900 600Z" fill="#27b3da"></path><path d="M514 600L510.2 587.5C506.3 575 498.7 550 491.3 525C484 500 477 475 471.2 450C465.3 425 460.7 400 470 375C479.3 350 502.7 325 497.7 300C492.7 275 459.3 250 463.2 225C467 200 508 175 523.2 150C538.3 125 527.7 100 513 75C498.3 50 479.7 25 470.3 12.5L461 0L900 0L900 12.5C900 25 900 50 900 75C900 100 900 125 900 150C900 175 900 200 900 225C900 250 900 275 900 300C900 325 900 350 900 375C900 400 900 425 900 450C900 475 900 500 900 525C900 550 900 575 900 587.5L900 600Z" fill="#039cce"></path><path d="M575 600L566.5 587.5C558 575 541 550 530.8 525C520.7 500 517.3 475 534 450C550.7 425 587.3 400 603.2 375C619 350 614 325 602.8 300C591.7 275 574.3 250 568.8 225C563.3 200 569.7 175 571 150C572.3 125 568.7 100 571 75C573.3 50 581.7 25 585.8 12.5L590 0L900 0L900 12.5C900 25 900 50 900 75C900 100 900 125 900 150C900 175 900 200 900 225C900 250 900 275 900 300C900 325 900 350 900 375C900 400 900 425 900 450C900 475 900 500 900 525C900 550 900 575 900 587.5L900 600Z" fill="#0084c0"></path><path d="M665 600L664.7 587.5C664.3 575 663.7 550 667.5 525C671.3 500 679.7 475 673.8 450C668 425 648 400 642.5 375C637 350 646 325 641.8 300C637.7 275 620.3 250 627.8 225C635.3 200 667.7 175 669 150C670.3 125 640.7 100 629.3 75C618 50 625 25 628.5 12.5L632 0L900 0L900 12.5C900 25 900 50 900 75C900 100 900 125 900 150C900 175 900 200 900 225C900 250 900 275 900 300C900 325 900 350 900 375C900 400 900 425 900 450C900 475 900 500 900 525C900 550 900 575 900 587.5L900 600Z" fill="#006db0"></path><path d="M694 600L696.5 587.5C699 575 704 550 703.3 525C702.7 500 696.3 475 699.8 450C703.3 425 716.7 400 728.8 375C741 350 752 325 758.7 300C765.3 275 767.7 250 764.8 225C762 200 754 175 742.5 150C731 125 716 100 714.2 75C712.3 50 723.7 25 729.3 12.5L735 0L900 0L900 12.5C900 25 900 50 900 75C900 100 900 125 900 150C900 175 900 200 900 225C900 250 900 275 900 300C900 325 900 350 900 375C900 400 900 425 900 450C900 475 900 500 900 525C900 550 900 575 900 587.5L900 600Z" fill="#00559e"></path><path d="M856 600L849 587.5C842 575 828 550 819.7 525C811.3 500 808.7 475 809.8 450C811 425 816 400 810.2 375C804.3 350 787.7 325 780.2 300C772.7 275 774.3 250 776 225C777.7 200 779.3 175 790.8 150C802.3 125 823.7 100 832.3 75C841 50 837 25 835 12.5L833 0L900 0L900 12.5C900 25 900 50 900 75C900 100 900 125 900 150C900 175 900 200 900 225C900 250 900 275 900 300C900 325 900 350 900 375C900 400 900 425 900 450C900 475 900 500 900 525C900 550 900 575 900 587.5L900 600Z" fill="#023e8a"></path></svg>